<?xml version="1.0" standalone="no"?>
<!DOCTYPE svg PUBLIC "-//W3C//DTD SVG 20010904//EN"
 "http://www.w3.org/TR/2001/REC-SVG-20010904/DTD/svg10.dtd">
<svg version="1.0" xmlns="http://www.w3.org/2000/svg"
 width="500.000000pt" height="500.000000pt" viewBox="0 0 500.000000 500.000000"
 preserveAspectRatio="xMidYMid meet">
<metadata>
Created by potrace 1.14, written by Peter Selinger 2001-2017
</metadata>
<g transform="translate(0.000000,500.000000) scale(0.100000,-0.100000)"
fill="#000000" stroke="none">
<path d="M2908 3715 c-2 -2 -17 -5 -34 -8 -41 -6 -72 -27 -174 -116 -98 -85
-111 -94 -165 -117 l-40 -16 28 25 c54 52 21 98 -68 93 -67 -3 -112 7 -228 55
-114 47 -166 55 -228 39 -59 -16 -124 -83 -137 -142 -13 -61 -12 -220 2 -308
13 -82 20 -100 41 -100 26 0 32 30 20 101 -7 39 -11 120 -11 182 2 91 6 118
21 145 20 33 85 72 121 72 27 0 97 -23 179 -58 69 -30 156 -51 188 -46 10 1
15 -1 12 -6 -5 -9 -115 -31 -170 -35 -48 -3 -60 -17 -56 -67 2 -23 49 -37 117
-33 198 12 285 49 430 185 74 69 112 90 165 90 58 0 94 -15 132 -53 72 -72 88
-185 52 -360 -16 -82 -16 -90 -1 -105 14 -14 18 -14 31 -2 42 43 63 314 31
399 -26 70 -75 128 -131 156 -42 21 -118 38 -127 30z"/>
<path d="M2067 3334 c-4 -4 -7 -65 -7 -136 0 -120 -1 -128 -19 -128 -24 0 -39
-39 -20 -51 8 -5 235 -8 504 -6 l490 2 0 25 c0 21 -5 26 -32 28 -18 2 -34 9
-34 15 -1 7 -3 59 -4 117 -3 147 -2 140 -29 140 -32 0 -36 -15 -35 -130 1
-158 13 -140 -96 -140 l-95 0 2 79 c2 90 -10 118 -44 100 -11 -6 -19 -19 -18
-32 1 -12 2 -50 1 -84 l-1 -63 -131 0 -130 0 1 48 c4 126 -4 154 -40 132 -15
-9 -18 -28 -19 -117 l-1 -63 -95 0 -94 0 -3 133 c-3 124 -4 132 -23 135 -12 2
-24 0 -28 -4z"/>
<path d="M3095 3060 c-3 -6 -3 -19 0 -30 6 -19 15 -20 193 -20 103 0 193 4
201 9 8 5 11 16 6 30 -6 20 -11 21 -200 21 -120 0 -196 -4 -200 -10z"/>
<path d="M1511 3051 c-8 -5 -11 -16 -6 -30 6 -20 11 -21 209 -21 212 0 235 4
215 42 -9 17 -25 18 -207 18 -108 0 -203 -4 -211 -9z"/>
<path d="M2437 2974 c-1 -1 -35 -5 -74 -9 -40 -3 -86 -10 -103 -15 -17 -5 -33
-9 -35 -9 -36 1 -181 -53 -237 -88 -46 -28 -49 -53 -15 -139 13 -32 36 -93 52
-134 67 -176 177 -360 214 -360 17 0 47 54 101 184 71 170 122 223 179 187 35
-23 45 -157 27 -396 -10 -132 13 -186 66 -156 57 32 193 234 293 436 109 220
156 335 144 357 -25 46 -234 117 -394 134 -52 5 -214 11 -218 8z m206 -58 c38
-3 97 -13 130 -21 77 -19 227 -75 227 -85 0 -13 -90 -211 -149 -330 -84 -167
-225 -380 -252 -380 -7 0 -8 30 -3 93 5 50 8 148 8 217 0 107 -3 132 -21 173
-37 80 -109 93 -180 32 -44 -37 -74 -94 -143 -267 -12 -32 -26 -58 -30 -58 -5
0 -15 12 -23 28 -80 156 -122 247 -163 355 -55 146 -59 130 51 176 75 31 180
56 285 67 36 3 66 7 67 8 3 2 129 -3 196 -8z"/>
<path d="M3631 1823 c0 -10 3 -13 5 -6 4 9 11 9 29 1 13 -6 31 -8 39 -5 29 11
16 22 -29 25 -38 2 -45 -1 -44 -15z"/>
<path d="M2626 1788 c-23 -13 -36 -49 -24 -70 5 -10 27 -27 48 -38 42 -21 52
-48 25 -70 -19 -16 -52 -4 -59 23 -6 20 -7 21 -17 4 -26 -44 61 -67 101 -27
33 33 23 63 -30 90 -42 21 -56 46 -39 66 16 20 36 17 53 -8 14 -19 16 -20 22
-4 8 21 5 24 -33 35 -18 5 -37 5 -47 -1z"/>
<path d="M2920 1783 c-15 -11 -20 -23 -18 -46 2 -26 11 -36 46 -55 44 -24 54
-50 27 -72 -19 -16 -52 -4 -59 23 -5 18 -8 19 -15 8 -17 -27 6 -51 49 -51 31
0 43 5 56 25 22 34 10 60 -39 87 -45 25 -55 53 -24 72 15 9 22 7 38 -13 16
-20 20 -21 25 -7 8 21 4 24 -34 35 -22 7 -36 5 -52 -6z"/>
<path d="M3853 1788 c-42 -11 -63 -43 -63 -93 0 -78 41 -115 113 -101 29 5 38
13 51 45 34 88 -22 171 -101 149z m56 -26 c32 -25 32 -119 1 -144 -23 -18 -53
-17 -75 4 -5 5 -10 36 -10 69 0 48 4 63 19 75 26 18 39 18 65 -4z"/>
<path d="M1039 1781 c21 -14 21 -168 1 -181 -10 -7 4 -10 45 -10 70 0 99 15
114 63 17 50 -1 106 -39 127 -24 13 -141 14 -121 1z m114 -20 c15 -15 24 -75
15 -108 -6 -22 -17 -34 -40 -42 -23 -8 -34 -8 -39 0 -5 9 -6 158 0 166 3 4 57
-9 64 -16z"/>
<path d="M1243 1779 c14 -8 17 -24 17 -89 0 -65 -3 -81 -17 -89 -14 -8 -9 -10
27 -11 34 0 41 3 32 12 -14 14 -16 78 -3 78 5 0 22 -19 38 -42 19 -28 37 -44
53 -46 14 -2 20 1 14 5 -6 4 -22 26 -37 47 -26 39 -26 40 -7 53 30 21 26 67
-5 81 -33 15 -138 16 -112 1z m88 -9 c36 -20 18 -80 -23 -80 -15 0 -18 8 -18
45 0 46 7 53 41 35z"/>
<path d="M1579 1781 c23 -15 24 -168 2 -181 -12 -7 -6 -9 24 -10 29 0 36 3 25
10 -11 7 -15 28 -15 79 -1 39 2 68 5 65 3 -3 17 -37 31 -77 14 -39 30 -72 35
-74 6 -2 24 36 42 84 l31 88 0 -75 c1 -47 -4 -81 -11 -88 -9 -9 -3 -12 28 -12
26 0 35 3 25 9 -19 12 -19 169 0 183 10 6 3 8 -20 6 -33 -3 -35 -6 -59 -76
-13 -41 -28 -70 -32 -65 -4 4 -18 38 -30 76 -22 66 -23 67 -59 67 -26 0 -32
-3 -22 -9z"/>
<path d="M1903 1763 c-7 -16 -22 -55 -33 -88 -11 -33 -28 -66 -37 -72 -14 -11
-11 -13 23 -12 21 0 33 3 27 6 -7 2 -13 13 -13 23 0 38 71 55 90 21 14 -28 13
-39 -7 -44 -10 -3 1 -5 25 -6 42 -1 42 -1 29 22 -8 12 -27 57 -42 100 -15 42
-33 77 -39 77 -6 0 -17 -12 -23 -27z m47 -90 c0 -2 -14 -3 -31 -3 -29 0 -31 2
-24 27 13 52 27 58 41 16 8 -21 14 -39 14 -40z"/>
<path d="M2043 1779 c14 -8 17 -24 17 -89 0 -65 -3 -81 -17 -89 -14 -8 -9 -10
27 -11 34 0 41 3 32 12 -14 14 -16 78 -3 78 5 0 22 -19 38 -42 19 -28 37 -44
53 -46 22 -2 23 -1 10 10 -9 7 -26 29 -37 48 -22 35 -22 36 -3 48 25 15 26 60
3 78 -11 8 -44 13 -78 13 -46 0 -56 -2 -42 -10z m95 -12 c15 -10 16 -49 0 -65
-7 -7 -20 -12 -30 -12 -15 0 -18 8 -18 45 0 46 12 54 48 32z"/>
<path d="M2251 1767 c-20 -22 -27 -55 -23 -114 1 -12 12 -31 24 -43 36 -33
118 -23 118 14 0 6 -5 5 -12 -2 -7 -7 -27 -12 -45 -12 -29 0 -36 5 -47 32 -28
65 4 144 52 132 12 -4 22 -10 22 -15 0 -5 7 -9 15 -9 20 0 19 26 -1 34 -35 13
-81 6 -103 -17z"/>
<path d="M2393 1779 c14 -8 17 -24 17 -83 0 -85 14 -106 73 -106 55 0 67 19
67 105 0 60 3 76 18 84 13 8 9 10 -23 11 -28 0 -36 -3 -26 -9 11 -7 14 -29 14
-82 -1 -82 -14 -102 -61 -90 -26 7 -27 10 -30 81 -2 62 0 77 14 87 15 11 11
13 -32 13 -38 -1 -45 -3 -31 -11z"/>
<path d="M3053 1779 c14 -8 17 -24 17 -89 0 -65 -3 -81 -17 -89 -14 -8 -7 -10
31 -11 44 0 48 2 32 13 -15 11 -18 27 -17 87 0 40 6 79 12 86 9 12 3 14 -32
14 -35 -1 -40 -3 -26 -11z"/>
<path d="M3153 1778 c14 -11 18 -28 18 -92 0 -55 -4 -81 -13 -87 -8 -6 -1 -9
22 -9 26 0 31 3 22 12 -7 7 -12 41 -11 88 l0 75 31 -87 c17 -49 35 -88 39 -88
4 0 20 33 34 73 15 39 31 76 35 80 4 5 6 -24 5 -63 -1 -49 -7 -75 -16 -81 -9
-6 1 -9 30 -9 38 0 42 2 28 13 -14 10 -17 26 -15 92 2 58 7 79 16 78 6 -2 12
2 12 7 0 6 -15 10 -34 10 -32 0 -34 -2 -56 -67 -12 -38 -25 -71 -29 -76 -4 -4
-19 25 -33 65 -25 73 -25 73 -64 76 -34 3 -37 2 -21 -10z"/>
<path d="M3423 1775 c20 -20 18 -162 -3 -175 -10 -7 10 -10 61 -10 77 0 92 7
82 38 -4 10 -8 10 -17 -2 -13 -18 -75 -31 -77 -16 -1 5 -1 19 -1 30 0 48 2 50
39 50 42 0 41 7 -2 11 -37 5 -43 12 -37 49 4 26 8 30 29 27 14 -2 31 -11 38
-20 15 -20 25 -13 18 14 -5 16 -14 19 -75 19 -61 0 -68 -2 -55 -15z"/>
<path d="M3631 1703 c-18 -49 -40 -94 -49 -100 -13 -11 -10 -13 22 -13 33 0
37 2 26 15 -21 25 -3 52 35 53 26 1 37 -4 46 -20 10 -18 8 -24 -7 -35 -16 -12
-13 -13 24 -13 41 0 42 1 29 23 -8 12 -27 57 -42 100 -15 42 -33 77 -40 77 -6
0 -26 -39 -44 -87z m58 -1 c9 -31 9 -32 -21 -32 -23 0 -29 4 -24 16 3 9 9 27
12 41 8 29 21 20 33 -25z"/>
<path d="M1437 1623 c-4 -3 -7 -12 -7 -20 0 -15 26 -18 34 -4 7 11 -18 33 -27
24z"/>
<path d="M1654 1366 c-11 -28 1 -61 22 -64 28 -4 48 22 40 53 -5 18 -13 25
-32 25 -13 0 -27 -6 -30 -14z m51 -26 c0 -18 -6 -26 -22 -28 -20 -3 -23 1 -23
28 0 27 3 31 23 28 16 -2 22 -10 22 -28z"/>
<path d="M1830 1340 c0 -28 4 -40 14 -40 31 0 46 13 46 40 0 27 -15 40 -46 40
-10 0 -14 -12 -14 -40z m45 0 c0 -16 -6 -26 -17 -28 -14 -3 -18 3 -18 28 0 25
4 31 18 28 11 -2 17 -12 17 -28z"/>
<path d="M2005 1369 c-4 -6 -4 -13 -1 -16 3 -4 6 -1 6 6 0 9 9 12 25 9 13 -3
22 -1 19 3 -7 13 -42 11 -49 -2z"/>
<path d="M2178 1368 c8 -8 9 -15 1 -25 -8 -9 -8 -13 0 -13 6 0 11 5 11 11 0 5
11 -3 25 -18 l24 -28 -1 45 c-1 44 -1 44 -7 10 l-6 -35 -20 33 c-11 17 -24 32
-29 32 -6 0 -5 -5 2 -12z"/>
<path d="M2353 1373 c9 -2 25 -2 35 0 9 3 1 5 -18 5 -19 0 -27 -2 -17 -5z"/>
<path d="M2530 1371 c18 -5 26 -15 28 -35 3 -24 0 -27 -19 -24 -14 2 -26 13
-31 28 -7 25 -7 25 -5 1 4 -52 67 -54 67 -2 0 29 -15 42 -48 40 -10 -1 -6 -4
8 -8z"/>
<path d="M2682 1343 c-2 -39 0 -43 21 -42 16 1 17 3 5 6 -11 3 -18 17 -21 41
l-4 37 -1 -42z"/>
<path d="M2834 1366 c-11 -28 1 -61 22 -64 28 -4 48 22 40 53 -5 18 -13 25
-32 25 -13 0 -27 -6 -30 -14z m51 -26 c0 -18 -6 -26 -22 -28 -20 -3 -23 1 -23
28 0 27 3 31 23 28 16 -2 22 -10 22 -28z"/>
<path d="M3012 1363 c-15 -28 3 -63 33 -63 18 0 25 5 25 20 0 11 -4 20 -10 20
-5 0 -7 -7 -4 -15 9 -22 -23 -19 -35 3 -12 23 -2 39 29 45 25 4 25 4 -2 6 -17
0 -31 -6 -36 -16z"/>
<path d="M3183 1340 c0 -25 2 -35 4 -22 2 12 2 32 0 45 -2 12 -4 2 -4 -23z"/>
<path d="M3307 1338 c-9 -25 -11 -36 -4 -28 15 20 35 19 47 0 5 -8 10 -12 10
-9 0 9 -30 79 -34 79 -1 0 -10 -19 -19 -42z m20 0 c-3 -8 -6 -5 -6 6 -1 11 2
17 5 13 3 -3 4 -12 1 -19z"/>
<path d="M2056 1333 c-8 -26 -46 -32 -46 -8 0 8 -5 15 -10 15 -7 0 -7 -6 0
-20 6 -11 19 -20 29 -20 22 0 45 24 39 42 -3 8 -8 4 -12 -9z"/>
<path d="M2372 1320 c0 -14 2 -19 5 -12 2 6 2 18 0 25 -3 6 -5 1 -5 -13z"/>
</g>
</svg>
